<?xml version="1.0" encoding="UTF-8" standalone="no"?>
<!-- Created with Inkscape (http://www.inkscape.org/) -->

<svg
   xmlns:dc="http://purl.org/dc/elements/1.1/"
   xmlns:cc="http://creativecommons.org/ns#"
   xmlns:rdf="http://www.w3.org/1999/02/22-rdf-syntax-ns#"
   xmlns:svg="http://www.w3.org/2000/svg"
   xmlns="http://www.w3.org/2000/svg"
   xmlns:sodipodi="http://sodipodi.sourceforge.net/DTD/sodipodi-0.dtd"
   xmlns:inkscape="http://www.inkscape.org/namespaces/inkscape"
   sodipodi:docname="caulogo.pdf"
   inkscape:version="0.47 r22583"
   version="1.1"
   id="svg2"
   height="400"
   width="600">
  <defs
     id="defs4">
    <inkscape:perspective
       sodipodi:type="inkscape:persp3d"
       inkscape:vp_x="0 : 526.18109 : 1"
       inkscape:vp_y="0 : 1000 : 0"
       inkscape:vp_z="744.09448 : 526.18109 : 1"
       inkscape:persp3d-origin="372.04724 : 350.78739 : 1"
       id="perspective10" />
    <inkscape:perspective
       id="perspective2824"
       inkscape:persp3d-origin="0.5 : 0.33333333 : 1"
       inkscape:vp_z="1 : 0.5 : 1"
       inkscape:vp_y="0 : 1000 : 0"
       inkscape:vp_x="0 : 0.5 : 1"
       sodipodi:type="inkscape:persp3d" />
    <inkscape:perspective
       id="perspective3481"
       inkscape:persp3d-origin="0.5 : 0.33333333 : 1"
       inkscape:vp_z="1 : 0.5 : 1"
       inkscape:vp_y="0 : 1000 : 0"
       inkscape:vp_x="0 : 0.5 : 1"
       sodipodi:type="inkscape:persp3d" />
    <inkscape:perspective
       id="perspective2900"
       inkscape:persp3d-origin="0.5 : 0.33333333 : 1"
       inkscape:vp_z="1 : 0.5 : 1"
       inkscape:vp_y="0 : 1000 : 0"
       inkscape:vp_x="0 : 0.5 : 1"
       sodipodi:type="inkscape:persp3d" />
    <inkscape:perspective
       id="perspective3060"
       inkscape:persp3d-origin="0.5 : 0.33333333 : 1"
       inkscape:vp_z="1 : 0.5 : 1"
       inkscape:vp_y="0 : 1000 : 0"
       inkscape:vp_x="0 : 0.5 : 1"
       sodipodi:type="inkscape:persp3d" />
    <inkscape:perspective
       id="perspective4241"
       inkscape:persp3d-origin="0.5 : 0.33333333 : 1"
       inkscape:vp_z="1 : 0.5 : 1"
       inkscape:vp_y="0 : 1000 : 0"
       inkscape:vp_x="0 : 0.5 : 1"
       sodipodi:type="inkscape:persp3d" />
  </defs>
  <sodipodi:namedview
     id="base"
     pagecolor="#ffffff"
     bordercolor="#666666"
     borderopacity="1.0"
     inkscape:pageopacity="0.0"
     inkscape:pageshadow="2"
     inkscape:zoom="1.2409339"
     inkscape:cx="347.9329"
     inkscape:cy="245.88823"
     inkscape:document-units="px"
     inkscape:current-layer="layer1"
     showgrid="false"
     showguides="false"
     inkscape:guide-bbox="true"
     inkscape:snap-grids="true"
     inkscape:window-width="1280"
     inkscape:window-height="962"
     inkscape:window-x="-8"
     inkscape:window-y="-8"
     inkscape:window-maximized="1">
    <sodipodi:guide
       orientation="1,0"
       position="0,1056.0968"
       id="guide3784" />
    <sodipodi:guide
       orientation="0,1"
       position="-198.19899,0"
       id="guide3786" />
    <sodipodi:guide
       orientation="0,1"
       position="-30,200"
       id="guide3788" />
    <inkscape:grid
       type="xygrid"
       id="grid3790"
       empspacing="5"
       visible="true"
       enabled="true"
       snapvisiblegridlinesonly="true" />
    <sodipodi:guide
       orientation="0,1"
       position="-40,300"
       id="guide3792" />
    <sodipodi:guide
       orientation="0,1"
       position="-25,400"
       id="guide3794" />
    <sodipodi:guide
       orientation="1,0"
       position="150,470"
       id="guide3796" />
    <sodipodi:guide
       orientation="1,0"
       position="300,420"
       id="guide3798" />
    <sodipodi:guide
       orientation="1,0"
       position="450,480"
       id="guide3800" />
    <sodipodi:guide
       orientation="1,0"
       position="600,260"
       id="guide3802" />
  </sodipodi:namedview>
  <metadata
     id="metadata7">
    <rdf:RDF>
      <cc:Work
         rdf:about="">
        <dc:format>image/svg+xml</dc:format>
        <dc:type
           rdf:resource="http://purl.org/dc/dcmitype/StillImage" />
        <dc:title></dc:title>
      </cc:Work>
    </rdf:RDF>
  </metadata>
  <g
     inkscape:label="Layer 1"
     inkscape:groupmode="layer"
     id="layer1"
     transform="translate(0,-652.36218)">
    <rect
       style="fill:#cd2db4;fill-opacity:1"
       id="rect3010"
       width="300"
       height="100"
       x="300"
       y="652.36224" />
    <path
       style="fill:#002194;fill-opacity:1;stroke:none"
       d=""
       id="path4197"
       transform="translate(0,652.36218)" />
    <path
       d="m 0,752.36223 600,0 0,199.99995 -600,0"
       style="fill:#000000;fill-opacity:1;fill-rule:evenodd;stroke:none"
       id="path4211" />
    <path
       d="m 3.3332797,854.02854 593.3334403,0 0,95 -593.3334403,0"
       style="fill:#ffffff;fill-opacity:1;fill-rule:evenodd;stroke:none"
       id="path4213" />
    <path
       d="m 3.3332797,755.69527 593.3334403,0 0,95 -593.3334403,0"
       style="fill:#ffffff;fill-opacity:1;fill-rule:evenodd;stroke:none"
       id="path4215" />
    <path
       d="m 27.787601,913.48854 0,-3.19428 -16.465668,0 0,3.19428 6.454775,0 0,20.25368 3.556588,0 0,-20.25368 6.454305,0 z m 14.786681,12.87639 0,-1.48167 c 0,-4.74239 -2.601619,-8.03569 -7.08025,-8.03569 -4.281076,0 -7.080368,3.12867 -7.080368,8.5297 0,6.356 3.325989,8.56791 7.508287,8.56791 2.930996,0 4.545072,-0.89465 6.257338,-2.60691 l -2.141009,-2.00942 c -1.185333,1.18568 -2.173346,1.71273 -4.050242,1.71273 -2.73344,0 -4.248385,-1.81139 -4.248385,-4.67665 l 10.834629,0 z m -3.325989,-2.33798 -7.50864,0 c 0.03305,-1.02106 0.09901,-1.51507 0.428037,-2.27235 0.527285,-1.25143 1.745662,-2.10773 3.326342,-2.10773 1.580562,0 2.766248,0.85631 3.293298,2.10773 0.329377,0.75729 0.428037,1.25129 0.460963,2.27235 z m 19.857744,7.54157 -2.305403,-2.20663 c -1.053629,1.15264 -1.877013,1.58068 -3.193932,1.58068 -1.284699,0 -2.371372,-0.5267 -3.096096,-1.48202 -0.724252,-0.92169 -0.988013,-2.14031 -0.988013,-4.08328 0,-1.94299 0.263761,-3.12867 0.988013,-4.05107 0.724724,-0.95462 1.811397,-1.48201 3.096096,-1.48201 1.316919,0 2.140303,0.42838 3.193932,1.58102 l 2.305403,-2.23931 c -1.580679,-1.67969 -3.194403,-2.33833 -5.499335,-2.33833 -3.754379,0 -7.442671,2.27236 -7.442671,8.5297 0,6.25733 3.688292,8.56791 7.442671,8.56791 2.304932,0 3.918656,-0.69697 5.499335,-2.37666 z m 17.354668,2.1737 0,-10.76937 c 0,-3.62233 -2.074686,-6.12528 -5.796021,-6.12528 -1.646414,0 -3.161007,0.62571 -4.314002,1.87736 l 0,-8.43068 -3.359033,0 0,23.44796 3.359033,0 0,-10.24196 c 0,-2.50331 1.514945,-3.65607 3.392311,-3.65607 1.877013,0 3.359033,1.12007 3.359033,3.65607 l 0,10.24196 3.358679,0 z m 18.705341,0 0,-10.67071 c 0,-1.87689 -0.395346,-3.45757 -1.679693,-4.709 -0.987665,-0.95496 -2.404063,-1.51494 -4.116332,-1.51494 -1.679693,0 -3.293416,0.62571 -4.445706,1.87737 l 0,-1.67969 -3.293298,0 0,16.69697 3.358915,0 0,-10.17635 c 0,-2.56893 1.581032,-3.72168 3.458045,-3.72168 1.877013,0 3.358684,1.12006 3.358684,3.72168 l 0,10.17635 3.359385,0 z m 8.529224,0 0,-16.69697 -3.35892,0 0,16.69697 3.35892,0 z m 0.099,-19.99027 0,-3.55671 -3.55658,0 0,3.55671 3.55658,0 z m 17.58539,14.88557 c 0,-2.96392 -1.84432,-4.44594 -4.973,-4.70934 l -2.6343,-0.23061 c -1.77836,-0.16463 -2.30505,-0.92239 -2.30505,-1.91006 0,-1.2513 1.0207,-2.14065 3.0293,-2.14065 1.58104,0 3.06305,0.32938 4.11633,1.21838 l 2.10773,-2.14031 c -1.5474,-1.35043 -3.68806,-1.87736 -6.19102,-1.87736 -3.49097,0 -6.29003,1.84432 -6.29003,5.10469 0,2.93099 1.81141,4.34693 4.94006,4.61057 l 2.66724,0.23036 c 1.61373,0.13171 2.23944,0.85631 2.23944,1.97603 0,1.58068 -1.61373,2.30529 -3.65537,2.30529 -1.64664,0 -3.45804,-0.3623 -4.808,-1.74566 l -2.2064,2.20674 c 1.97603,1.94298 4.28108,2.40959 7.0144,2.40959 3.98463,0 6.94867,-1.81692 6.94867,-5.30766 z m 16.16933,2.931 -2.3054,-2.20663 c -1.05398,1.15264 -1.8769,1.58068 -3.19428,1.58068 -1.28435,0 -2.37103,-0.5267 -3.09563,-1.48202 -0.72472,-0.92169 -0.98802,-2.14031 -0.98802,-4.08328 0,-1.94299 0.2633,-3.12867 0.98802,-4.05107 0.7246,-0.95462 1.81128,-1.48201 3.09563,-1.48201 1.31738,0 2.1403,0.42838 3.19428,1.58102 l 2.3054,-2.23931 c -1.58103,-1.67969 -3.1944,-2.33833 -5.49968,-2.33833 -3.75439,0 -7.44267,2.27236 -7.44267,8.5297 0,6.25733 3.68828,8.56791 7.44267,8.56791 2.30528,0 3.91865,-0.69697 5.49968,-2.37666 z m 17.35467,2.1737 0,-10.76937 c 0,-3.62233 -2.07469,-6.12528 -5.79602,-6.12528 -1.64665,0 -3.161,0.62571 -4.314,1.87736 l 0,-8.43068 -3.35903,0 0,23.44796 3.35903,0 0,-10.24196 c 0,-2.50331 1.51506,-3.65607 3.39231,-3.65607 1.87701,0 3.35903,1.12007 3.35903,3.65607 l 0,10.24196 3.35868,0 z m 18.47462,-7.37729 0,-1.48167 c 0,-4.74239 -2.60126,-8.03569 -7.08025,-8.03569 -4.28108,0 -7.08002,3.12867 -7.08002,8.5297 0,6.356 3.32564,8.56791 7.50794,8.56791 2.93099,0 4.54507,-0.89465 6.25734,-2.60691 l -2.14066,-2.00942 c -1.18569,1.18568 -2.1737,1.71273 -4.05059,1.71273 -2.73344,0 -4.24839,-1.81139 -4.24839,-4.67665 l 10.83463,0 z m -3.32599,-2.33798 -7.50864,0 c 0.033,-1.02106 0.099,-1.51507 0.42804,-2.27235 0.52729,-1.25143 1.74566,-2.10773 3.32634,-2.10773 1.58057,0 2.76625,0.85631 3.2933,2.10773 0.32926,0.75729 0.42803,1.25129 0.46096,2.27235 z m 31.05432,-10.53841 0,-3.19428 -14.98365,0 0,23.44796 3.55636,0 0,-9.91294 9.74796,0 0,-3.1944 -9.74796,0 0,-7.14634 11.42729,0 z m 15.08266,20.25368 0,-11.16436 c 0,-3.78731 -2.30492,-5.73029 -6.88233,-5.73029 -2.76661,0 -4.41325,0.55998 -5.99393,2.40395 l 2.20662,2.07468 c 0.92205,-1.18533 1.81139,-1.6136 3.65537,-1.6136 2.60162,0 3.65536,1.02093 3.65536,3.12866 l 0,1.18569 -4.41266,0 c -3.82035,0 -5.76333,2.0086 -5.76333,4.80824 0,1.41605 0.46096,2.7004 1.31763,3.5894 1.0207,1.02129 2.4037,1.52059 4.47827,1.52059 2.07469,0 3.22768,-0.4993 4.44571,-1.71791 l 0,1.51495 3.29329,0 z m -3.35891,-6.02698 c 0,1.18569 -0.23072,1.97626 -0.72437,2.47027 -0.889,0.85608 -1.84432,0.95473 -3.12867,0.95473 -2.10773,0 -3.06269,-0.85607 -3.06269,-2.37101 0,-1.51495 1.02105,-2.4043 2.99672,-2.4043 l 3.91901,0 0,1.35031 z m 23.18397,6.02698 -6.52063,-10.14331 5.79591,-6.55366 -4.08329,0 -6.4877,7.70595 0,-14.45695 -3.35892,0 0,23.44796 3.35892,0 0,-4.90702 2.47003,-2.79964 4.67595,7.70666 4.14973,0 z m 16.762,0 0,-16.69697 -3.35903,0 0,10.17598 c 0,2.56905 -1.58068,3.72134 -3.4577,3.72134 -1.87724,0 -3.35926,-1.11936 -3.35926,-3.72134 l 0,-10.17598 -3.35903,0 0,10.66999 c 0,1.87736 0.39499,3.45793 1.67969,4.70935 0.98801,0.95532 2.40394,1.52059 4.11633,1.52059 1.67969,0 3.29329,-0.63124 4.44594,-1.88266 l 0,1.67969 3.29306,0 z m 11.88838,0 0,-2.86538 -1.48167,0 c -1.35043,0 -1.8114,-0.65863 -1.8114,-1.94299 l 0,-18.63959 -3.35902,0 0,18.83727 c 0,2.47003 1.383,4.61069 4.5774,4.61069 l 2.07469,0 z m 10.66999,0 0,-2.86538 -1.38335,0 c -1.25107,0 -1.84409,-0.72425 -1.84409,-1.94299 l 0,-9.02335 3.22744,0 0,-2.56893 -3.22744,0 0,-5.07165 -3.35891,0 0,5.07165 -1.91006,0 0,2.56893 1.91006,0 0,9.1881 c 0,2.4043 1.44897,4.64361 4.57729,4.64361 l 2.00906,0 z m 16.56457,0 0,-11.16436 c 0,-3.78731 -2.30528,-5.73029 -6.88258,-5.73029 -2.76636,0 -4.41301,0.55998 -5.99369,2.40395 l 2.20627,2.07468 c 0.9224,-1.18533 1.8114,-1.6136 3.65537,-1.6136 2.60173,0 3.65572,1.02093 3.65572,3.12866 l 0,1.18569 -4.41267,0 c -3.82035,0 -5.76332,2.0086 -5.76332,4.80824 0,1.41605 0.46096,2.7004 1.31727,3.5894 1.02105,1.02129 2.4037,1.52059 4.47863,1.52059 2.07468,0 3.22732,-0.4993 4.44571,-1.71791 l 0,1.51495 3.29329,0 z m -3.35891,-6.02698 c 0,1.18569 -0.23072,1.97626 -0.72473,2.47027 -0.889,0.85608 -1.84396,0.95473 -3.12831,0.95473 -2.10762,0 -3.06306,-0.85607 -3.06306,-2.37101 0,-1.51495 1.02142,-2.4043 2.99709,-2.4043 l 3.919,0 0,1.35031 z m 1.94298,-13.8644 0,-3.55658 -3.03001,0 0,3.55658 3.03001,0 z m -7.11341,0 0,-3.55658 -3.02966,0 0,3.55658 3.02966,0 z m 20.68101,19.89138 0,-2.86538 -1.38324,0 c -1.25107,0 -1.84409,-0.72425 -1.84409,-1.94299 l 0,-9.02335 3.22733,0 0,-2.56893 -3.22733,0 0,-5.07165 -3.35927,0 0,5.07165 -1.9097,0 0,2.56893 1.9097,0 0,9.1881 c 0,2.4043 1.44933,4.64361 4.57764,4.64361"
       style="fill:#000000;fill-opacity:1;fill-rule:evenodd;stroke:none"
       id="path4217" />
    <path
       d="m 29.324654,828.39418 -3.587633,0 c -0.55974,2.37103 -2.172405,4.01767 -4.77273,4.01767 -1.381949,0 -2.632664,-0.52693 -3.455341,-1.41628 -1.15229,-1.25107 -1.41558,-2.60139 -1.41558,-7.31074 0,-4.70958 0.26329,-6.05989 1.41558,-7.31131 0.822677,-0.889 2.073392,-1.41629 3.455341,-1.41629 2.600325,0 4.180416,1.64665 4.739687,4.01802 l 3.620676,0 c -0.823031,-4.6763 -4.048713,-7.21207 -8.360363,-7.21207 -2.435343,0 -4.541662,0.889 -6.154327,2.50272 -2.304344,2.30529 -2.271301,4.90703 -2.271301,9.41893 0,4.51168 -0.03305,7.11342 2.271301,9.4187 1.612665,1.61373 3.718984,2.50837 6.154327,2.50837 4.246033,0 7.570376,-2.54129 8.360363,-7.21772 z m 17.805988,7.01476 0,-10.76937 c 0,-3.62232 -2.073627,-6.12539 -5.792964,-6.12539 -1.645708,0 -3.15936,0.6257 -4.31165,1.87736 l 0,-8.43069 -3.357033,0 0,23.44809 3.357033,0 0,-10.24208 c 0,-2.50331 1.51424,-3.65595 3.390312,-3.65595 1.875955,0 3.357269,1.11995 3.357269,3.65595 l 0,10.24208 3.357033,0 z M 64.01494,820.0952 c -1.151937,-1.15264 -2.369961,-1.58102 -3.982626,-1.58102 -1.875719,0 -3.58728,0.82338 -4.443001,2.00906 l 0,-1.8114 -3.291652,0 0,16.6971 3.357034,0 0,-10.14343 c 0,-2.30563 1.514239,-3.7546 3.324577,-3.7546 1.151702,0 1.744016,0.36265 2.50143,1.11995 l 2.534238,-2.53566 z m 6.08871,15.31374 0,-16.6971 -3.357034,0 0,16.6971 3.357034,0 z m 0.09901,-19.99039 0,-3.55671 -3.554707,0 0,3.55671 3.554707,0 z m 17.575624,14.88569 c 0,-2.96403 -1.843264,-4.44606 -4.970286,-4.70934 l -2.632663,-0.23072 c -1.777295,-0.16463 -2.303992,-0.92228 -2.303992,-1.90994 0,-1.25131 1.020351,-2.14066 3.02801,-2.14066 1.579974,0 3.060935,0.32926 4.113977,1.21826 l 2.106318,-2.1403 c -1.546695,-1.35031 -3.686057,-1.87736 -6.18737,-1.87736 -3.488972,0 -6.286617,1.84443 -6.286617,5.10469 0,2.93099 1.810338,4.34704 4.937007,4.61068 l 2.665942,0.23037 c 1.612665,0.13158 2.238022,0.85631 2.238022,1.97603 0,1.58056 -1.612665,2.30528 -3.653014,2.30528 -1.64559,0 -3.455929,-0.3623 -4.805656,-1.74566 l -2.204979,2.20663 c 1.974968,1.94297 4.278724,2.4097 7.010635,2.4097 3.982391,0 6.944666,-1.81704 6.944666,-5.30766 z m 10.729397,5.1047 0,-2.86538 -1.38266,0 c -1.250365,0 -1.842674,-0.72437 -1.842674,-1.94298 l 0,-9.02335 3.225334,0 0,-2.56905 -3.225334,0 0,-5.07165 -3.357391,0 0,5.07165 -1.909002,0 0,2.56905 1.909002,0 0,9.18798 c 0,2.4043 1.448383,4.64373 4.574705,4.64373 l 2.00802,0 z m 7.635629,0 0,-16.6971 -3.35703,0 0,16.6971 3.35703,0 z m 0.099,-19.99039 0,-3.55671 -3.5547,0 0,3.55671 3.5547,0 z m 17.50931,19.99039 0,-11.16436 c 0,-3.7873 -2.30364,-5.7304 -6.8787,-5.7304 -2.76495,0 -4.41066,0.56008 -5.99028,2.40406 l 2.20533,2.07468 c 0.92169,-1.18533 1.80999,-1.61372 3.65301,-1.61372 2.60033,0 3.65373,1.02105 3.65373,3.12866 l 0,1.18569 -4.41043,0 c -3.818,0 -5.75992,2.00872 -5.75992,4.80836 0,1.41593 0.4606,2.70028 1.31656,3.58929 1.02035,1.02141 2.40277,1.5207 4.47605,1.5207 2.07363,0 3.22568,-0.49929 4.44335,-1.71802 l 0,1.51506 3.2913,0 z m -3.35691,-6.02709 c 0,1.18568 -0.23072,1.97637 -0.72403,2.47038 -0.88876,0.85596 -1.84338,0.95462 -3.12666,0.95462 -2.10668,0 -3.06141,-0.85596 -3.06141,-2.3709 0,-1.51507 1.02071,-2.40442 2.99532,-2.40442 l 3.91678,0 0,1.35032 z m 22.05154,6.02709 0,-10.67071 c 0,-1.87701 -0.39522,-3.45769 -1.67863,-4.70899 -0.9873,-0.95498 -2.40265,-1.51506 -4.11398,-1.51506 -1.67864,0 -3.2913,0.6257 -4.44335,1.87736 l 0,-1.6797 -3.29131,0 0,16.69709 3.35705,0 0,-10.17634 c 0,-2.56905 1.57997,-3.72169 3.45592,-3.72169 1.87607,0 3.35703,1.11995 3.35703,3.72169 l 0,10.17634 3.35727,0 z m 14.31702,-7.57473 0,-3.12867 -9.6106,0 0,3.12867 9.6106,0 z m 22.51239,7.57473 -8.59002,-23.44809 -2.86361,0 -8.59038,23.44809 3.78531,0 1.61267,-4.70971 9.2483,0 1.61302,4.70971 3.78471,0 z m -6.38503,-7.73936 -7.20761,0 3.65302,-10.40671 3.55459,10.40671 z m 15.86406,7.73936 0,-2.86538 -1.48108,0 c -1.34926,0 -1.81034,-0.65864 -1.81034,-1.94298 l 0,-18.63973 -3.35692,0 0,18.8374 c 0,2.47003 1.38195,4.61069 4.57494,4.61069 l 2.0734,0 z m 17.34526,-8.36507 c 0,-2.53601 -0.19768,-5.36799 -1.87596,-7.04768 -0.92169,-0.92193 -2.36972,-1.48201 -4.04835,-1.48201 -1.77731,0 -3.15995,0.42838 -4.37763,1.87736 l 0,-8.43069 -3.35703,0 0,23.44809 3.29129,0 0,-1.77836 c 1.25072,1.51459 2.6001,1.98132 4.41032,1.98132 1.67875,0 3.15971,-0.56538 4.0814,-1.48766 1.67828,-1.67934 1.87595,-4.54472 1.87595,-7.08037 z m -3.35692,0 c 0,2.96404 -0.42838,5.5653 -3.45604,5.5653 -3.02836,0 -3.48898,-2.60126 -3.48898,-5.5653 0,-2.96392 0.46061,-5.53296 3.48898,-5.53296 3.02766,0 3.45604,2.56904 3.45604,5.53296 z m 19.61598,-6.94867 c -1.15206,-1.15264 -2.37008,-1.58102 -3.98275,-1.58102 -1.87596,0 -3.58728,0.82338 -4.443,2.00906 l 0,-1.8114 -3.29166,0 0,16.6971 3.35705,0 0,-10.14343 c 0,-2.30563 1.51435,-3.7546 3.32469,-3.7546 1.15159,0 1.74402,0.36265 2.50131,1.11995 l 2.53436,-2.53566 z m 15.00834,7.93633 0,-1.48167 c 0,-4.74227 -2.60009,-8.03568 -7.07637,-8.03568 -4.27873,0 -7.07602,3.12866 -7.07602,8.52969 0,6.35599 3.32399,8.56803 7.50406,8.56803 2.92899,0 4.54201,-0.89464 6.25334,-2.60702 l -2.13936,-2.00931 c -1.18499,1.18569 -2.17229,1.71262 -4.04801,1.71262 -2.73203,0 -4.24603,-1.81128 -4.24603,-4.67666 l 10.82839,0 z m -3.32399,-2.33798 -7.5044,0 c 0.033,-1.02094 0.099,-1.51494 0.42768,-2.27236 0.5267,-1.2513 1.74472,-2.10761 3.32434,-2.10761 1.57963,0 2.76472,0.85631 3.2913,2.10761 0.32938,0.75742 0.42804,1.25142 0.46108,2.27236 z m 19.84634,7.54169 -2.30399,-2.20663 c -1.05339,1.15265 -1.87607,1.58056 -3.1924,1.58056 -1.284,0 -2.36962,-0.52658 -3.09434,-1.4819 -0.72402,-0.92169 -0.98696,-2.14042 -0.98696,-4.0834 0,-1.94299 0.26294,-3.12867 0.98696,-4.05095 0.72472,-0.95473 1.81034,-1.48201 3.09434,-1.48201 1.31633,0 2.13901,0.42827 3.1924,1.58102 l 2.30399,-2.23943 c -1.58009,-1.67957 -3.19276,-2.33832 -5.49639,-2.33832 -3.75227,0 -7.43833,2.27235 -7.43833,8.52969 0,6.25734 3.68606,8.56803 7.43833,8.56803 2.30363,0 3.9163,-0.69697 5.49639,-2.37666 z m 17.3449,2.1737 0,-10.76937 c 0,-3.62232 -2.07362,-6.12539 -5.79261,-6.12539 -1.6457,0 -3.15971,0.6257 -4.31165,1.87736 l 0,-8.43069 -3.35703,0 0,23.44809 3.35703,0 0,-10.24208 c 0,-2.50331 1.51401,-3.65595 3.39032,-3.65595 1.87595,0 3.35703,1.11995 3.35703,3.65595 l 0,10.24208 3.35691,0 z m 12.14473,0 0,-2.86538 -1.38229,0 c -1.25037,0 -1.84304,-0.72437 -1.84304,-1.94298 l 0,-9.02335 3.22533,0 0,-2.56905 -3.22533,0 0,-5.07165 -3.35738,0 0,5.07165 -1.90865,0 0,2.56905 1.90865,0 0,9.18798 c 0,2.4043 1.44874,4.64373 4.57506,4.64373 l 2.00765,0 z m 16.62137,-5.1047 c 0,-2.96403 -1.84338,-4.44606 -4.97006,-4.70934 l -2.63301,-0.23072 c -1.77729,-0.16463 -2.30364,-0.92228 -2.30364,-1.90994 0,-1.25131 1.02,-2.14066 3.02765,-2.14066 1.57998,0 3.06106,0.32926 4.11399,1.21826 l 2.10666,-2.1403 c -1.54692,-1.35031 -3.68629,-1.87736 -6.18761,-1.87736 -3.48908,0 -6.28673,1.84443 -6.28673,5.10469 0,2.93099 1.81034,4.34704 4.93736,4.61068 l 2.6657,0.23037 c 1.61267,0.13158 2.23826,0.85631 2.23826,1.97603 0,1.58056 -1.61266,2.30528 -3.65324,2.30528 -1.64571,0 -3.45605,-0.3623 -4.80543,-1.74566 l -2.20533,2.20663 c 1.97509,1.94297 4.27872,2.4097 7.01076,2.4097 3.98227,0 6.94467,-1.81704 6.94467,-5.30766 z m 13.23058,-2.47003 0,-3.12867 -9.61026,0 0,3.12867 9.61026,0 z m 21.72275,-0.32926 0,-15.5441 -3.5547,0 0,15.37936 c 0,3.12866 -1.94204,5.07164 -4.87104,5.07164 -2.92934,0 -4.83834,-1.94298 -4.83834,-5.07164 l 0,-15.37936 -3.55459,0 0,15.5441 c 0,4.84094 3.62032,8.10695 8.39293,8.10695 4.77238,0 8.42574,-3.26601 8.42574,-8.10695 z m 18.89196,7.90399 0,-10.67071 c 0,-1.87701 -0.39499,-3.45769 -1.67863,-4.70899 -0.98743,-0.95498 -2.40265,-1.51506 -4.11409,-1.51506 -1.67864,0 -3.29131,0.6257 -4.44324,1.87736 l 0,-1.6797 -3.29142,0 0,16.69709 3.35703,0 0,-10.17634 c 0,-2.56905 1.57998,-3.72169 3.45605,-3.72169 1.87596,0 3.35692,1.11995 3.35692,3.72169 l 0,10.17634 3.35738,0 z m 8.52429,0 0,-16.6971 -3.35691,0 0,16.6971 3.35691,0 z m 0.099,-19.99039 0,-3.55671 -3.55459,0 0,3.55671 3.55459,0 z m 17.80564,3.29329 -3.55459,0 -3.91631,11.75703 -3.9497,-11.75703 -3.5547,0 6.12164,16.69709 2.73202,0 6.12164,-16.69709 z m 15.89676,9.31969 0,-1.48167 c 0,-4.74227 -2.59998,-8.03568 -7.07602,-8.03568 -4.27872,0 -7.07637,3.12866 -7.07637,8.52969 0,6.35599 3.32399,8.56803 7.50405,8.56803 2.92935,0 4.54225,-0.89464 6.2537,-2.60702 l -2.13972,-2.00931 c -1.18463,1.18569 -2.17206,1.71262 -4.04801,1.71262 -2.73203,0 -4.24603,-1.81128 -4.24603,-4.67666 l 10.8284,0 z m -3.324,-2.33798 -7.5044,0 c 0.033,-1.02094 0.099,-1.51494 0.42804,-2.27236 0.52669,-1.2513 1.74437,-2.10761 3.32434,-2.10761 1.57962,0 2.76436,0.85631 3.29129,2.10761 0.32903,0.75742 0.42769,1.25142 0.46073,2.27236 z m 19.48428,-5.59835 c -1.15159,-1.15264 -2.36962,-1.58102 -3.98228,-1.58102 -1.87607,0 -3.58775,0.82338 -4.44335,2.00906 l 0,-1.8114 -3.2913,0 0,16.6971 3.35691,0 0,-10.14343 c 0,-2.30563 1.51401,-3.7546 3.32434,-3.7546 1.15206,0 1.74437,0.36265 2.50132,1.11995 l 2.53436,-2.53566 z m 14.7454,10.20903 c 0,-2.96403 -1.84338,-4.44605 -4.97005,-4.70934 l -2.63301,-0.23071 c -1.7773,-0.16463 -2.304,-0.92228 -2.304,-1.90994 0,-1.25131 1.02036,-2.14066 3.02801,-2.14066 1.57997,0 3.06106,0.32926 4.11398,1.21826 l 2.10667,-2.1403 c -1.54693,-1.35032 -3.6863,-1.87736 -6.18761,-1.87736 -3.48909,0 -6.28673,1.84443 -6.28673,5.10469 0,2.93099 1.81034,4.34704 4.937,4.61068 l 2.66606,0.23037 c 1.61266,0.13158 2.23826,0.85631 2.23826,1.97603 0,1.58056 -1.61267,2.30528 -3.65325,2.30528 -1.6457,0 -3.45604,-0.3623 -4.80542,-1.74566 l -2.20534,2.20663 c 1.97509,1.94297 4.27873,2.4097 7.01076,2.4097 3.98227,0 6.94467,-1.81704 6.94467,-5.30766 z m 7.43797,5.1047 0,-16.69709 -3.35703,0 0,16.69709 3.35703,0 z m 0.099,-19.99038 0,-3.55671 -3.55471,0 0,3.55671 3.55471,0 z m 12.21035,19.99038 0,-2.86537 -1.38242,0 c -1.25025,0 -1.84291,-0.72437 -1.84291,-1.94299 l 0,-9.02335 3.22533,0 0,-2.56904 -3.22533,0 0,-5.07166 -3.35739,0 0,5.07166 -1.909,0 0,2.56904 1.909,0 0,9.18798 c 0,2.4043 1.44839,4.64373 4.57505,4.64373 l 2.00767,0 z m 16.55527,0 0,-11.16435 c 0,-3.78731 -2.30364,-5.73041 -6.8787,-5.73041 -2.76495,0 -4.41066,0.56009 -5.99028,2.40406 l 2.20497,2.07469 c 0.9217,-1.18533 1.81035,-1.61373 3.65337,-1.61373 2.60033,0 3.6536,1.02106 3.6536,3.12867 l 0,1.18569 -4.4103,0 c -3.818,0 -5.75992,2.00872 -5.75992,4.80836 0,1.41593 0.4606,2.70028 1.31656,3.58928 1.02035,1.02141 2.40242,1.5207 4.47605,1.5207 2.07363,0 3.22568,-0.49929 4.44335,-1.71802 l 0,1.51506 3.2913,0 z m -3.35704,-6.02709 c 0,1.18569 -0.23059,1.97638 -0.7239,2.47038 -0.88876,0.85597 -1.84338,0.95462 -3.12702,0.95462 -2.10632,0 -3.06105,-0.85595 -3.06105,-2.3709 0,-1.51506 1.02071,-2.40441 2.99509,-2.40441 l 3.91688,0 0,1.35031 z m 1.94205,-13.86428 0,-3.55671 -3.02837,0 0,3.55671 3.02837,0 z m -7.1093,0 0,-3.55671 -3.02801,0 0,3.55671 3.02801,0 z m 20.66925,19.89137 0,-2.86537 -1.38265,0 c -1.25025,0 -1.84291,-0.72437 -1.84291,-1.94299 l 0,-9.02335 3.22556,0 0,-2.56904 -3.22556,0 0,-5.07166 -3.35739,0 0,5.07166 -1.90865,0 0,2.56904 1.90865,0 0,9.18798 c 0,2.4043 1.44862,4.64373 4.57506,4.64373 l 2.00789,0 z m 23.36836,0 0,-2.99708 -8.36002,0 8.36002,-11.03265 0,-2.66736 -11.98069,0 0,2.99709 7.83378,0 -8.29439,11.03229 0,2.66771 12.4413,0 z m 17.60831,0 0,-16.69709 -3.35692,0 0,10.176 c 0,2.56905 -1.57997,3.72133 -3.45604,3.72133 -1.87631,0 -3.35727,-1.11924 -3.35727,-3.72133 l 0,-10.176 -3.35704,0 0,10.67 c 0,1.87737 0.39499,3.45805 1.67864,4.70935 0.98731,0.95532 2.40266,1.5207 4.11398,1.5207 1.67875,0 3.29141,-0.63135 4.44335,-1.88265 l 0,1.67969 3.2913,0 z m 31.89276,0 -8.3927,-14.2601 7.60272,-9.18798 -4.344,0 -9.57803,11.78971 0,-11.78971 -3.55471,0 0,23.44809 3.55471,0 0,-6.81744 3.9497,-4.74227 6.58224,11.55971 4.18007,0 z m 6.35235,0 0,-16.69709 -3.35703,0 0,16.69709 3.35703,0 z m 0.0989,-19.99038 0,-3.55671 -3.55459,0 0,3.55671 3.55459,0 z m 18.52977,12.61298 0,-1.48167 c 0,-4.74227 -2.60009,-8.03569 -7.07637,-8.03569 -4.27872,0 -7.07602,3.12866 -7.07602,8.52969 0,6.356 3.32399,8.56803 7.50406,8.56803 2.92899,0 4.54189,-0.89464 6.25334,-2.60701 l -2.13937,-2.00931 c -1.18498,1.18568 -2.17205,1.71262 -4.04801,1.71262 -2.73202,0 -4.24603,-1.81129 -4.24603,-4.67666 l 10.8284,0 z m -3.32411,-2.33798 -7.50429,0 c 0.033,-1.02094 0.099,-1.51495 0.42769,-2.27236 0.52705,-1.25131 1.7446,-2.10761 3.32434,-2.10761 1.57962,0 2.7646,0.8563 3.2913,2.10761 0.32937,0.75741 0.42803,1.25142 0.46096,2.27236 z m 14.31702,9.71538 0,-2.86537 -1.48096,0 c -1.34962,0 -1.81034,-0.65864 -1.81034,-1.94299 l 0,-18.63972 -3.35704,0 0,18.8374 c 0,2.47003 1.38207,4.61069 4.57471,4.61069"
       style="fill:#000000;fill-opacity:1;fill-rule:evenodd;stroke:none"
       id="path4219" />
    <path
       d="m 0,652.36183 299.99999,0 0,101.66645 -299.99999,0"
       style="fill:#000000;fill-opacity:1;fill-rule:evenodd;stroke:none"
       id="path4221" />
    <path
       d="m 98.333284,679.69517 3.333396,0 0,76.66673 -3.333396,0"
       style="fill:#ffffff;fill-opacity:1;fill-rule:evenodd;stroke:none"
       id="path4223" />
    <path
       d="m 198.33332,652.36183 3.33328,0 0,73.33345 -3.33328,0"
       style="fill:#ffffff;fill-opacity:1;fill-rule:evenodd;stroke:none"
       id="path4225" />
    <path
       d="m 268.03962,706.98559 0,-26.422 -9.93692,0 0,25.63202 c 0,6.71959 -1.92076,9.82497 -7.84837,9.82497 -5.98429,0 -8.35695,-3.0507 -8.35695,-9.82497 l 0,-25.63202 -9.93705,0 0,26.422 c 0,9.88225 5.30837,17.84197 18.23733,17.84197 12.98668,0 17.84196,-8.46902 17.84196,-17.84197"
       style="fill:#ffffff;fill-opacity:1;fill-rule:evenodd;stroke:none"
       id="path4227" />
    <path
       d="m 171.82196,724.89989 -21.90669,-46.40969 -21.73699,46.40969 10.55841,0 4.57294,-10.10732 13.38004,0 4.57399,10.10732 10.5583,0 z m -18.06799,-17.27694 -7.7336,0 3.66995,-8.18669"
       style="fill:#ffffff;fill-opacity:1;fill-rule:evenodd;stroke:none"
       id="path4229" />
    <path
       d="m 70.664684,715.2059 -6.776391,-5.08129 c -3.274601,5.98429 -8.80698,6.49358 -11.234326,6.49358 -8.356013,0 -13.438365,-6.26769 -13.438365,-14.39862 0,-8.58003 6.098352,-13.94402 12.985751,-13.94402 4.912666,0 8.976313,1.86337 10.614613,4.51638 l 6.266627,-6.20936 c -4.120915,-5.53438 -10.726561,-7.00205 -16.993659,-7.00205 -12.760325,0 -22.753579,9.59873 -22.753579,22.63905 0,13.60792 9.42928,22.92337 22.865998,22.92337 5.984287,0 13.438246,-1.80669 18.463331,-9.93704"
       style="fill:#ffffff;fill-opacity:1;fill-rule:evenodd;stroke:none"
       id="path4231" />
  </g>
</svg>
